HIERARCHY
ROOT Hips
{
 OFFSET 0.000000 0.000000 0.000000
 CHANNELS 6 Xposition Yposition Zposition Yrotation Xrotation Zrotation
 JOINT Chest
 {
  OFFSET 0.000000 9.585900 0.002600
  CHANNELS 3 Yrotation Xrotation Zrotation
  JOINT Chest2
  {
   OFFSET 0.000000 9.601200 -0.005300
   CHANNELS 3 Yrotation Xrotation Zrotation
   JOINT Chest3
   {
    OFFSET 0.000000 9.561800 0.000000
    CHANNELS 3 Yrotation Xrotation Zrotation
    JOINT Chest4
    {
     OFFSET 0.000000 9.552100 0.000000
     CHANNELS 3 Yrotation Xrotation Zrotation
     JOINT Neck
     {
      OFFSET 0.000000 14.453000 0.000000
      CHANNELS 3 Yrotation Xrotation Zrotation
      JOINT Head
      {
       OFFSET 0.000000 8.936500 -0.011300
       CHANNELS 3 Yrotation Xrotation Zrotation
       End Site
       {
        OFFSET 0.000000 17.073600 -0.006000
       }
      }
     }
     JOINT RightCollar
     {
      OFFSET -2.921100 9.558500 0.000000
      CHANNELS 3 Yrotation Xrotation Zrotation
      JOINT RightShoulder
      {
       OFFSET -13.519700 0.000000 0.000000
       CHANNELS 3 Yrotation Xrotation Zrotation
       JOINT RightElbow
       {
        OFFSET 0.000000 -29.696600 0.000000
        CHANNELS 3 Yrotation Xrotation Zrotation
        JOINT RightWrist
        {
         OFFSET 0.000000 -24.004700 0.000000
         CHANNELS 3 Yrotation Xrotation Zrotation
         End Site
         {
          OFFSET 0.000000 -17.728500 0.000000
         }
        }
       }
      }
     }
     JOINT LeftCollar
     {
      OFFSET 2.921100 9.558500 0.000000
      CHANNELS 3 Yrotation Xrotation Zrotation
      JOINT LeftShoulder
      {
       OFFSET 13.519700 0.000000 0.000000
       CHANNELS 3 Yrotation Xrotation Zrotation
       JOINT LeftElbow
       {
        OFFSET 0.000000 -29.696600 0.000000
        CHANNELS 3 Yrotation Xrotation Zrotation
        JOINT LeftWrist
        {
         OFFSET 0.000000 -24.004700 0.000000
         CHANNELS 3 Yrotation Xrotation Zrotation
         End Site
         {
          OFFSET 0.000000 -17.728500 0.000000
         }
        }
       }
      }
     }
    }
   }
  }
 }
 JOINT RightHip
 {
  OFFSET -7.771700 -0.012900 -0.001300
  CHANNELS 3 Yrotation Xrotation Zrotation
  JOINT RightKnee
  {
   OFFSET 0.000000 -40.869800 0.001200
   CHANNELS 3 Yrotation Xrotation Zrotation
   JOINT RightAnkle
   {
    OFFSET 0.000000 -39.717900 0.002100
    CHANNELS 3 Yrotation Xrotation Zrotation
    JOINT RightToe
    {
     OFFSET 0.000000 -4.965400 11.033500
     CHANNELS 3 Yrotation Xrotation Zrotation
     End Site
     {
      OFFSET 0.000000 -1.423100 5.872300
     }
    }
   }
  }
 }
 JOINT LeftHip
 {
  OFFSET 7.771700 -0.012900 -0.001300
  CHANNELS 3 Yrotation Xrotation Zrotation
  JOINT LeftKnee
  {
   OFFSET 0.000000 -40.869800 0.001200
   CHANNELS 3 Yrotation Xrotation Zrotation
   JOINT LeftAnkle
   {
    OFFSET 0.000000 -39.717900 0.002100
    CHANNELS 3 Yrotation Xrotation Zrotation
    JOINT LeftToe
    {
     OFFSET 0.000000 -4.965400 11.033500
     CHANNELS 3 Yrotation Xrotation Zrotation
     End Site
     {
      OFFSET 0.000000 -1.423100 5.872300
     }
    }
   }
  }
 }
}
MOTION
Frames: 5
Frame Time: 0.008333
0.000000 85.388000 0.000000 0.000000 -5.767877 0.000000 0.000000 11.653817 0.000000 0.000000 -5.885947 0.000000 0.000000 -0.000000 0.000000 0.000000 -0.000000 0.000000 0.000000 12.528835 0.000000 0.000000 0.711642 0.000000 0.000000 -0.000000 0.000000 0.000000 0.000000 -90.000000 0.000000 -2.309062 0.000000 0.000000 2.309062 0.000000 0.000000 -0.000000 0.000000 0.000000 -0.000000 90.000000 0.000000 -2.309062 0.000000 0.000000 2.309062 0.000000 0.000000 8.520406 0.000000 0.000000 1.905762 0.000000 -0.000000 -4.658285 0.000000 0.000000 -0.000000 0.000000 0.000000 8.520406 0.000000 0.000000 1.905762 0.000000 -0.000000 -4.658285 0.000000 0.000000 -0.000000 0.000000
-64.491551 63.098588 13.806533 166.875263 -49.307792 -2.121146 7.706556 24.983864 2.936709 1.214181 4.156943 0.101068 1.958149 6.595774 0.169322 6.344231 20.559410 1.421583 -0.416109 18.113961 -0.719001 -0.530231 -2.156843 -1.186039 4.975301 5.356029 5.733491 -12.966080 -12.387960 -7.775263 -126.068739 -63.094965 149.827811 7.273468 -8.756101 -7.596627 -6.089448 4.840735 3.279150 13.562183 -8.119202 8.041977 133.573117 -65.767935 -146.377964 20.992965 -13.763010 5.782058 -6.687117 -11.550473 7.019353 -28.866735 74.717650 -26.467058 1.923757 -12.912715 -2.329340 -0.366252 0.693743 -0.125963 -7.833716 -18.257915 -3.365644 12.725108 63.555524 6.490992 -0.323374 -7.408713 -0.159471 -0.229525 -0.629279 -0.095761
-64.492173 63.095247 13.801809 166.890293 -49.272632 -2.126028 7.741022 24.946886 2.887773 1.190319 4.148025 0.132812 1.980122 6.565842 0.130008 6.370297 20.523446 1.391402 -0.141340 18.242596 -0.472730 -0.106184 -1.917036 -0.822738 4.987375 5.273259 5.755177 -12.835947 -12.430916 -7.982276 -128.236552 -63.399869 151.592405 8.182419 -8.398006 -6.700841 -6.078137 4.683388 3.229494 13.227978 -8.365314 8.426778 135.495219 -66.350591 -148.094959 20.451090 -13.600302 5.520792 -6.692644 -11.588203 7.019893 -28.897128 74.730535 -26.499495 1.921410 -12.930785 -2.328576 -0.365297 0.699960 -0.128483 -7.848425 -18.297690 -3.362621 12.710952 63.566760 6.470021 -0.319802 -7.411866 -0.160030 -0.226177 -0.627177 -0.092993
-64.491997 63.091291 13.796725 166.909660 -49.231437 -2.140020 7.775937 24.902823 2.843190 1.223364 4.116830 0.084449 1.954785 6.554800 0.176389 6.396706 20.487327 1.361180 0.140243 18.369560 -0.222005 0.329113 -1.680769 -0.453016 4.997265 5.186180 5.776031 -12.687956 -12.475718 -8.202815 -130.486681 -63.715126 153.450013 8.959604 -8.098459 -5.857742 -6.069297 4.521536 3.173149 12.870154 -8.638451 8.825462 137.206779 -66.881570 -149.660918 19.955880 -13.450997 5.250248 -6.703140 -11.630605 7.027367 -28.919744 74.743123 -26.525360 1.919070 -12.947283 -2.325539 -0.362882 0.706289 -0.137231 -7.875123 -18.346344 -3.349398 12.704255 63.583381 6.449006 -0.315274 -7.411811 -0.157110 -0.225628 -0.628846 -0.093316
-64.491177 63.087018 13.791311 166.927291 -49.187445 -2.157749 7.783033 24.856834 2.825794 1.225291 4.108774 0.081113 1.978679 6.521385 0.134844 6.426012 20.451103 1.331625 0.425588 18.494225 0.033445 0.770138 -1.449277 -0.075384 5.004007 5.095536 5.799254 -12.527361 -12.519761 -8.431429 -132.715674 -64.017415 155.302440 9.658051 -7.854374 -5.055979 -6.072969 4.359339 3.113714 12.489710 -8.930423 9.243290 138.571511 -67.349656 -150.960143 19.477016 -13.320645 4.972202 -6.714600 -11.673962 7.039458 -28.934119 74.752133 -26.545068 1.923998 -12.961717 -2.317852 -0.370435 0.712926 -0.146131 -7.895508 -18.395280 -3.331101 12.690065 63.599143 6.426572 -0.315869 -7.416855 -0.154332 -0.222547 -0.624341 -0.093066
